<!DOCTYPE svg PUBLIC "-//W3C//DTD SVG 20010904//EN" "http://www.w3.org/TR/2001/REC-SVG-20010904/DTD/svg10.dtd">
<svg version="1.0" xmlns="http://www.w3.org/2000/svg" width="943px" height="677px" viewBox="0 0 9430 6770" preserveAspectRatio="xMidYMid meet">
<g id="layer101" fill="#0f0f0f" stroke="none">
 <path d="M1480 6210 l0 -180 3280 0 3280 0 0 180 0 180 -3280 0 -3280 0 0 -180z"/>
 <path d="M8550 3310 l0 -2380 -920 0 -920 0 0 -180 0 -180 1095 0 1095 0 0 2560 0 2560 -175 0 -175 0 0 -2380z"/>
 </g>
<g id="layer102" fill="#5b5b5b" stroke="none">
 <path d="M1492 6213 l3 -168 78 -3 77 -3 0 171 0 170 -80 0 -80 0 2 -167z"/>
 <path d="M1670 6300 l0 -81 78 3 77 3 3 78 3 77 -81 0 -80 0 0 -80z"/>
 <path d="M1840 6300 l0 -80 80 0 80 0 0 80 0 80 -80 0 -80 0 0 -80z"/>
 <path d="M2020 6210 l0 -171 78 3 77 3 0 165 0 165 -77 3 -78 3 0 -171z"/>
 <path d="M2190 6300 l0 -80 165 0 165 0 0 80 0 80 -165 0 -165 0 0 -80z"/>
 <path d="M2540 6300 l0 -80 165 0 165 0 0 80 0 80 -165 0 -165 0 0 -80z"/>
 <path d="M2890 6210 l0 -171 78 3 77 3 3 168 2 167 -80 0 -80 0 0 -170z"/>
 <path d="M3060 6300 l0 -80 80 0 80 0 0 80 0 80 -80 0 -80 0 0 -80z"/>
 <path d="M3240 6300 l0 -80 80 0 80 0 0 80 0 80 -80 0 -80 0 0 -80z"/>
 <path d="M3410 6300 l0 -80 80 0 80 0 0 80 0 80 -80 0 -80 0 0 -80z"/>
 <path d="M3590 6300 l0 -80 80 0 80 0 0 80 0 80 -80 0 -80 0 0 -80z"/>
 <path d="M3762 6213 l3 -168 78 -3 77 -3 0 171 0 170 -80 0 -80 0 2 -167z"/>
 <path d="M3930 6300 l0 -80 125 0 125 0 0 80 0 80 -125 0 -125 0 0 -80z"/>
 <path d="M4200 6300 l0 -80 165 0 165 0 0 80 0 80 -165 0 -165 0 0 -80z"/>
 <path d="M4550 6210 l0 -171 78 3 77 3 3 168 2 167 -80 0 -80 0 0 -170z"/>
 <path d="M4720 6300 l0 -80 80 0 80 0 0 80 0 80 -80 0 -80 0 0 -80z"/>
 <path d="M4900 6300 l0 -81 78 3 77 3 0 75 0 75 -77 3 -78 3 0 -81z"/>
 <path d="M5070 6300 l0 -80 80 0 80 0 0 80 0 80 -80 0 -80 0 0 -80z"/>
 <path d="M5250 6300 l0 -80 75 0 75 0 0 80 0 80 -75 0 -75 0 0 -80z"/>
 <path d="M5422 6213 l3 -168 75 0 75 0 3 168 2 167 -80 0 -80 0 2 -167z"/>
 <path d="M5594 6366 c-3 -7 -4 -42 -2 -77 l3 -64 168 -3 167 -2 0 80 0 80 -165 0 c-130 0 -167 -3 -171 -14z"/>
 <path d="M5942 6303 l3 -78 168 -3 167 -2 0 80 0 80 -170 0 -171 0 3 -77z"/>
 <path d="M6292 6213 l3 -168 78 -3 77 -3 0 171 0 170 -80 0 -80 0 2 -167z"/>
 <path d="M6470 6300 l0 -80 80 0 80 0 0 80 0 80 -80 0 -80 0 0 -80z"/>
 <path d="M6640 6300 l0 -80 80 0 80 0 0 80 0 80 -80 0 -80 0 0 -80z"/>
 <path d="M6820 6300 l0 -81 78 3 77 3 3 78 3 77 -81 0 -80 0 0 -80z"/>
 <path d="M6990 6300 l0 -80 80 0 80 0 0 80 0 80 -80 0 -80 0 0 -80z"/>
 <path d="M7170 6210 l0 -171 78 3 77 3 0 165 0 165 -77 3 -78 3 0 -171z"/>
 <path d="M7340 6300 l0 -80 165 0 165 0 0 80 0 80 -165 0 -165 0 0 -80z"/>
 <path d="M7690 6300 l0 -80 165 0 165 0 0 80 0 80 -165 0 -165 0 0 -80z"/>
 <path d="M1670 6120 l0 -80 165 0 165 0 0 80 0 80 -165 0 -165 0 0 -80z"/>
 <path d="M2192 6123 l3 -78 75 0 75 0 3 78 3 77 -81 0 -81 0 3 -77z"/>
 <path d="M2370 6120 l0 -80 75 0 75 0 0 80 0 80 -75 0 -75 0 0 -80z"/>
 <path d="M2540 6120 l0 -81 78 3 77 3 3 78 3 77 -81 0 -80 0 0 -80z"/>
 <path d="M2712 6123 l3 -78 78 -3 77 -3 0 81 0 80 -80 0 -81 0 3 -77z"/>
 <path d="M3062 6123 l3 -78 165 0 165 0 3 78 3 77 -171 0 -171 0 3 -77z"/>
 <path d="M3412 6123 l3 -78 165 0 165 0 3 78 3 77 -171 0 -171 0 3 -77z"/>
 <path d="M3930 6119 l0 -80 38 3 37 3 3 78 3 77 -41 0 -40 0 0 -81z"/>
 <path d="M4022 6123 l3 -78 78 -3 77 -3 0 81 0 80 -80 0 -81 0 3 -77z"/>
 <path d="M4200 6120 l0 -81 78 3 77 3 3 78 3 77 -81 0 -80 0 0 -80z"/>
 <path d="M4372 6123 l3 -78 78 -3 77 -3 0 81 0 80 -80 0 -81 0 3 -77z"/>
 <path d="M4722 6123 l3 -78 165 0 165 0 3 78 3 77 -171 0 -171 0 3 -77z"/>
 <path d="M5072 6123 l3 -78 163 -3 162 -2 0 80 0 80 -165 0 -166 0 3 -77z"/>
 <path d="M5592 6123 l3 -78 78 -3 77 -3 0 81 0 80 -80 0 -81 0 3 -77z"/>
 <path d="M5770 6120 l0 -81 78 3 77 3 3 78 3 77 -81 0 -80 0 0 -80z"/>
 <path d="M5942 6123 l3 -78 78 -3 77 -3 0 81 0 80 -80 0 -81 0 3 -77z"/>
 <path d="M6120 6120 l0 -81 78 3 77 3 3 78 3 77 -81 0 -80 0 0 -80z"/>
 <path d="M6470 6120 l0 -80 165 0 165 0 0 80 0 80 -165 0 -165 0 0 -80z"/>
 <path d="M6820 6120 l0 -80 165 0 165 0 0 80 0 80 -165 0 -165 0 0 -80z"/>
 <path d="M7342 6123 l3 -78 75 0 75 0 3 78 3 77 -81 0 -81 0 3 -77z"/>
 <path d="M7512 6123 l3 -78 78 -3 77 -3 0 81 0 80 -80 0 -81 0 3 -77z"/>
 <path d="M7690 6120 l0 -81 78 3 77 3 3 78 3 77 -81 0 -80 0 0 -80z"/>
 <path d="M7862 6123 l3 -78 78 -3 77 -3 0 81 0 80 -80 0 -81 0 3 -77z"/>
 <path d="M8564 5667 c-3 -8 -4 -45 -2 -83 l3 -69 75 0 75 0 3 83 3 82 -76 0 c-54 0 -77 -4 -81 -13z"/>
 <path d="M8740 5510 l0 -170 80 0 80 0 -2 168 -3 167 -77 3 -78 3 0 -171z"/>
 <path d="M8560 5420 l0 -80 80 0 80 0 0 80 0 80 -80 0 -80 0 0 -80z"/>
 <path d="M8560 5240 l0 -80 168 2 167 3 3 78 3 77 -171 0 -170 0 0 -80z"/>
 <path d="M8567 5143 c-4 -3 -7 -39 -7 -80 l0 -73 80 0 80 0 0 80 0 80 -73 0 c-41 0 -77 -3 -80 -7z"/>
 <path d="M8740 4980 l0 -171 78 3 77 3 0 165 0 165 -77 3 -78 3 0 -171z"/>
 <path d="M8560 4890 l0 -80 80 0 80 0 0 80 0 80 -80 0 -80 0 0 -80z"/>
 <path d="M8562 4713 l3 -78 165 0 165 0 3 78 3 77 -171 0 -171 0 3 -77z"/>
 <path d="M8567 4613 c-4 -3 -7 -80 -7 -170 l0 -163 80 0 80 0 0 170 0 170 -73 0 c-41 0 -77 -3 -80 -7z"/>
 <path d="M8740 4540 l0 -80 80 0 81 0 -3 78 -3 77 -77 3 -78 3 0 -81z"/>
 <path d="M8740 4360 l0 -81 78 3 77 3 3 78 3 77 -81 0 -80 0 0 -80z"/>
 <path d="M8567 4264 c-4 -4 -7 -81 -7 -171 l0 -163 80 0 80 0 -2 168 -3 167 -70 3 c-39 1 -74 0 -78 -4z"/>
 <path d="M8747 4264 c-4 -4 -7 -43 -7 -86 l0 -79 78 3 77 3 0 80 0 80 -70 3 c-39 1 -74 0 -78 -4z"/>
 <path d="M8740 4010 l0 -80 80 0 81 0 -3 78 -3 77 -77 3 -78 3 0 -81z"/>
 <path d="M8560 3830 l0 -80 168 2 167 3 3 78 3 77 -171 0 -170 0 0 -80z"/>
 <path d="M8567 3733 c-4 -3 -7 -39 -7 -80 l0 -73 80 0 80 0 0 80 0 80 -73 0 c-41 0 -77 -3 -80 -7z"/>
 <path d="M8740 3570 l0 -170 80 0 80 0 -2 168 -3 167 -77 3 -78 3 0 -171z"/>
 <path d="M8560 3480 l0 -80 80 0 80 0 0 80 0 80 -80 0 -80 0 0 -80z"/>
 <path d="M8562 3303 l3 -78 78 -3 77 -3 0 81 0 80 -80 0 -81 0 3 -77z"/>
 <path d="M8740 3215 l0 -165 80 0 80 0 0 165 0 165 -80 0 -80 0 0 -165z"/>
 <path d="M8567 3203 c-4 -3 -7 -39 -7 -80 l0 -73 80 0 80 0 0 80 0 80 -73 0 c-41 0 -77 -3 -80 -7z"/>
 <path d="M8560 2950 l0 -80 168 2 167 3 3 78 3 77 -171 0 -170 0 0 -80z"/>
 <path d="M8560 2685 l0 -165 80 0 80 0 0 165 0 165 -80 0 -80 0 0 -165z"/>
 <path d="M8740 2770 l0 -81 78 3 77 3 3 78 3 77 -81 0 -80 0 0 -80z"/>
 <path d="M8740 2600 l0 -80 80 0 81 0 -3 78 -3 77 -77 3 -78 3 0 -81z"/>
 <path d="M8562 2333 l3 -168 75 0 75 0 3 168 2 167 -80 0 -80 0 2 -167z"/>
 <path d="M8740 2420 l0 -81 78 3 77 3 3 78 3 77 -81 0 -80 0 0 -80z"/>
 <path d="M8740 2245 l0 -86 78 3 77 3 0 80 0 80 -77 3 -78 3 0 -86z"/>
 <path d="M8560 2070 l0 -80 170 0 171 0 -3 78 -3 77 -167 3 -168 2 0 -80z"/>
 <path d="M8560 1890 l0 -80 80 0 80 0 0 80 0 80 -80 0 -80 0 0 -80z"/>
 <path d="M8740 1805 l0 -165 80 0 80 0 0 165 0 165 -80 0 -80 0 0 -165z"/>
 <path d="M8567 1793 c-4 -3 -7 -39 -7 -80 l0 -73 80 0 80 0 0 80 0 80 -73 0 c-41 0 -77 -3 -80 -7z"/>
 <path d="M8560 1540 l0 -80 80 0 80 0 0 80 0 80 -80 0 -80 0 0 -80z"/>
 <path d="M8740 1450 l0 -171 78 3 77 3 0 165 0 165 -77 3 -78 3 0 -171z"/>
 <path d="M8562 1363 l3 -78 78 -3 77 -3 0 81 0 80 -80 0 -81 0 3 -77z"/>
 <path d="M8567 1264 c-4 -4 -7 -40 -7 -81 l0 -73 170 0 171 0 -3 78 -3 77 -161 3 c-88 1 -163 -1 -167 -4z"/>
 <path d="M8562 923 l3 -168 78 -3 77 -3 0 171 0 170 -80 0 -80 0 2 -167z"/>
 <path d="M8740 1010 l0 -81 78 3 77 3 3 78 3 77 -81 0 -80 0 0 -80z"/>
 <path d="M6730 830 l0 -80 35 0 35 0 0 80 0 80 -35 0 -35 0 0 -80z"/>
 <path d="M6820 830 l0 -81 78 3 77 3 3 78 3 77 -81 0 -80 0 0 -80z"/>
 <path d="M6992 833 l3 -78 78 -3 77 -3 0 81 0 80 -80 0 -81 0 3 -77z"/>
 <path d="M7170 830 l0 -81 78 3 77 3 0 75 0 75 -77 3 -78 3 0 -81z"/>
 <path d="M7340 745 l0 -165 80 0 80 0 0 165 0 165 -80 0 -80 0 0 -165z"/>
 <path d="M7512 833 l3 -78 165 0 165 0 3 78 3 77 -171 0 -171 0 3 -77z"/>
 <path d="M7862 833 l3 -78 165 0 165 0 3 78 3 77 -171 0 -171 0 3 -77z"/>
 <path d="M8210 745 l0 -165 80 0 80 0 0 165 0 165 -80 0 -80 0 0 -165z"/>
 <path d="M8390 830 l0 -81 78 3 77 3 3 78 3 77 -81 0 -80 0 0 -80z"/>
 <path d="M8740 830 l0 -81 78 3 77 3 3 78 3 77 -81 0 -80 0 0 -80z"/>
 <path d="M6730 660 l0 -80 125 0 126 0 -3 78 -3 77 -122 3 -123 3 0 -81z"/>
 <path d="M6990 660 l0 -80 168 2 167 3 0 75 0 75 -167 3 -168 2 0 -80z"/>
 <path d="M7514 726 c-3 -7 -4 -42 -2 -77 l3 -64 78 -3 77 -3 0 81 0 80 -75 0 c-54 0 -77 -4 -81 -14z"/>
 <path d="M7690 660 l0 -80 80 0 80 0 0 80 0 80 -80 0 -80 0 0 -80z"/>
 <path d="M7867 733 c-4 -3 -7 -39 -7 -80 l0 -73 80 0 80 0 0 80 0 80 -73 0 c-41 0 -77 -3 -80 -7z"/>
 <path d="M8040 660 l0 -80 80 0 80 0 0 80 0 80 -80 0 -80 0 0 -80z"/>
 <path d="M8390 660 l0 -80 165 0 165 0 0 80 0 80 -165 0 -165 0 0 -80z"/>
 <path d="M8740 660 l0 -80 80 0 81 0 -3 78 -3 77 -77 3 -78 3 0 -81z"/>
 </g>
<g id="layer103" fill="#a6a6a6" stroke="none">
 <path d="M1500 6215 l0 -165 75 0 75 0 0 165 0 165 -75 0 -75 0 0 -165z"/>
 <path d="M1670 6300 l0 -80 75 0 75 0 0 80 0 80 -75 0 -75 0 0 -80z"/>
 <path d="M1844 6366 c-3 -7 -4 -42 -2 -77 l3 -64 75 0 75 0 3 78 3 77 -76 0 c-54 0 -77 -4 -81 -14z"/>
 <path d="M2020 6215 l0 -165 75 0 75 0 0 165 0 165 -75 0 -75 0 0 -165z"/>
 <path d="M2194 6366 c-3 -7 -4 -42 -2 -77 l3 -64 163 -3 162 -2 0 80 0 80 -160 0 c-126 0 -162 -3 -166 -14z"/>
 <path d="M2542 6303 l3 -78 163 -3 162 -2 0 80 0 80 -165 0 -166 0 3 -77z"/>
 <path d="M2890 6215 l0 -165 75 0 75 0 0 155 c0 85 1 158 3 163 1 4 -33 8 -75 10 l-78 3 0 -166z"/>
 <path d="M3070 6300 l0 -80 75 0 75 0 0 80 0 80 -75 0 -75 0 0 -80z"/>
 <path d="M3240 6300 l0 -80 75 0 75 0 0 80 0 80 -75 0 -75 0 0 -80z"/>
 <path d="M3420 6300 l0 -80 75 0 75 0 0 80 0 80 -75 0 -75 0 0 -80z"/>
 <path d="M3590 6300 l0 -80 75 0 75 0 0 80 0 80 -75 0 -75 0 0 -80z"/>
 <path d="M3767 6374 c-4 -4 -7 -79 -7 -166 l0 -158 80 0 80 0 -2 163 -3 162 -70 3 c-39 1 -74 0 -78 -4z"/>
 <path d="M3930 6300 l0 -80 125 0 125 0 0 80 0 80 -125 0 -125 0 0 -80z"/>
 <path d="M4200 6300 l0 -80 165 0 165 0 0 80 0 80 -165 0 -165 0 0 -80z"/>
 <path d="M4550 6215 l0 -165 75 0 75 0 0 165 0 165 -75 0 -75 0 0 -165z"/>
 <path d="M4729 6375 c0 -3 0 -38 -1 -77 l0 -73 73 0 74 0 3 78 3 77 -76 0 c-41 0 -75 -2 -76 -5z"/>
 <path d="M4900 6300 l0 -80 75 0 75 0 0 80 0 80 -75 0 -75 0 0 -80z"/>
 <path d="M5074 6367 c-3 -8 -4 -43 -2 -78 l3 -64 75 0 75 0 0 75 0 75 -73 3 c-55 2 -74 -1 -78 -11z"/>
 <path d="M5250 6300 l0 -80 75 0 75 0 0 80 0 80 -75 0 -75 0 0 -80z"/>
 <path d="M5427 6374 c-4 -4 -7 -79 -7 -166 l0 -158 80 0 80 0 -2 163 -3 162 -70 3 c-39 1 -74 0 -78 -4z"/>
 <path d="M5600 6300 l0 -80 163 2 162 3 0 75 0 75 -162 3 -163 2 0 -80z"/>
 <path d="M5950 6300 l0 -80 160 0 160 0 0 80 0 80 -160 0 -160 0 0 -80z"/>
 <path d="M6300 6215 l0 -165 75 0 75 0 0 165 0 165 -75 0 -75 0 0 -165z"/>
 <path d="M6470 6300 l0 -80 75 0 75 0 0 80 0 80 -75 0 -75 0 0 -80z"/>
 <path d="M6649 6375 c0 -3 0 -38 -1 -77 l0 -73 73 0 74 0 3 78 3 77 -76 0 c-41 0 -75 -2 -76 -5z"/>
 <path d="M6820 6300 l0 -80 75 0 75 0 0 80 0 80 -75 0 -75 0 0 -80z"/>
 <path d="M6994 6366 c-3 -7 -4 -42 -2 -77 l3 -64 75 0 75 0 3 78 3 77 -76 0 c-54 0 -77 -4 -81 -14z"/>
 <path d="M7170 6215 l0 -165 75 0 75 0 0 165 0 165 -75 0 -75 0 0 -165z"/>
 <path d="M7344 6366 c-3 -7 -4 -42 -2 -77 l3 -64 163 -3 162 -2 0 80 0 80 -160 0 c-126 0 -162 -3 -166 -14z"/>
 <path d="M7692 6303 l3 -78 163 -3 162 -2 0 80 0 80 -165 0 -166 0 3 -77z"/>
 <path d="M1670 6125 l0 -75 165 0 165 0 0 75 0 75 -165 0 -165 0 0 -75z"/>
 <path d="M2190 6125 l0 -75 80 0 80 0 0 75 0 75 -80 0 -80 0 0 -75z"/>
 <path d="M2370 6125 l0 -75 75 0 75 0 0 75 0 75 -75 0 -75 0 0 -75z"/>
 <path d="M2540 6125 l0 -75 80 0 80 0 0 75 0 75 -80 0 -80 0 0 -75z"/>
 <path d="M2720 6125 l0 -75 75 0 75 0 0 75 0 75 -75 0 -75 0 0 -75z"/>
 <path d="M3070 6125 l0 -75 160 0 160 0 0 75 0 75 -160 0 -160 0 0 -75z"/>
 <path d="M3420 6125 l0 -75 160 0 160 0 0 75 0 75 -160 0 -160 0 0 -75z"/>
 <path d="M3930 6126 l0 -76 38 0 37 0 -1 72 -2 73 -36 3 -36 3 0 -75z"/>
 <path d="M4030 6125 l0 -75 75 0 75 0 0 75 0 75 -75 0 -75 0 0 -75z"/>
 <path d="M4200 6125 l0 -75 75 0 75 0 0 75 0 75 -75 0 -75 0 0 -75z"/>
 <path d="M4380 6125 l0 -75 75 0 75 0 0 75 0 75 -75 0 -75 0 0 -75z"/>
 <path d="M4730 6198 c-1 -2 -2 -36 -3 -76 l-2 -72 163 0 162 0 0 75 0 75 -160 0 c-88 0 -160 -1 -160 -2z"/>
 <path d="M5070 6125 l0 -75 165 0 165 0 0 75 0 75 -165 0 -165 0 0 -75z"/>
 <path d="M5600 6125 l0 -75 75 0 75 0 0 75 0 75 -75 0 -75 0 0 -75z"/>
 <path d="M5770 6125 l0 -75 80 0 81 0 -3 73 -3 72 -77 3 -78 3 0 -76z"/>
 <path d="M5950 6125 l0 -75 75 0 75 0 0 75 0 75 -75 0 -75 0 0 -75z"/>
 <path d="M6120 6125 l0 -75 75 0 75 0 0 75 0 75 -75 0 -75 0 0 -75z"/>
 <path d="M6470 6125 l0 -75 165 0 165 0 0 75 0 75 -165 0 -165 0 0 -75z"/>
 <path d="M6820 6125 l0 -75 165 0 165 0 0 75 0 75 -165 0 -165 0 0 -75z"/>
 <path d="M7340 6125 l0 -75 80 0 80 0 0 75 0 75 -80 0 -80 0 0 -75z"/>
 <path d="M7520 6125 l0 -75 75 0 75 0 0 75 0 75 -75 0 -75 0 0 -75z"/>
 <path d="M7690 6125 l0 -75 80 0 80 0 0 75 0 75 -80 0 -80 0 0 -75z"/>
 <path d="M7870 6125 l0 -75 75 0 75 0 0 75 0 75 -75 0 -75 0 0 -75z"/>
 <path d="M8570 5595 l0 -75 75 0 75 0 0 75 0 75 -75 0 -75 0 0 -75z"/>
 <path d="M8740 5505 l0 -165 75 0 75 0 0 165 0 165 -75 0 -75 0 0 -165z"/>
 <path d="M8570 5420 l0 -80 75 0 76 0 -3 78 -3 77 -72 3 -73 3 0 -81z"/>
 <path d="M8570 5245 l0 -75 160 0 160 0 0 75 0 75 -160 0 -160 0 0 -75z"/>
 <path d="M8570 5065 l0 -75 75 0 75 0 0 75 0 75 -75 0 -75 0 0 -75z"/>
 <path d="M8740 4975 l0 -165 75 0 75 0 0 165 0 165 -75 0 -75 0 0 -165z"/>
 <path d="M8570 4890 l0 -80 75 0 75 0 0 80 0 80 -75 0 -75 0 0 -80z"/>
 <path d="M8570 4715 l0 -75 160 0 160 0 0 75 0 75 -160 0 -160 0 0 -75z"/>
 <path d="M8570 4445 l0 -166 73 3 72 3 3 163 2 162 -75 0 -75 0 0 -165z"/>
 <path d="M8740 4535 l0 -75 75 0 75 0 0 75 0 75 -75 0 -75 0 0 -75z"/>
 <path d="M8740 4360 l0 -80 75 0 75 0 0 80 0 80 -75 0 -75 0 0 -80z"/>
 <path d="M8570 4095 l0 -165 75 0 75 0 0 165 0 165 -75 0 -75 0 0 -165z"/>
 <path d="M8740 4185 l0 -75 75 0 75 0 0 75 0 75 -75 0 -75 0 0 -75z"/>
 <path d="M8747 4083 c-4 -3 -7 -39 -7 -80 l0 -73 75 0 75 0 0 80 0 80 -68 0 c-38 0 -72 -3 -75 -7z"/>
 <path d="M8570 3830 l0 -80 160 0 160 0 0 80 0 80 -160 0 -160 0 0 -80z"/>
 <path d="M8570 3655 l0 -75 75 0 75 0 0 75 0 75 -75 0 -75 0 0 -75z"/>
 <path d="M8740 3565 l0 -165 75 0 75 0 0 165 0 165 -75 0 -75 0 0 -165z"/>
 <path d="M8570 3480 l0 -80 75 0 76 0 -3 78 -3 77 -72 3 -73 3 0 -81z"/>
 <path d="M8570 3305 l0 -75 75 0 75 0 0 75 0 75 -75 0 -75 0 0 -75z"/>
 <path d="M8740 3215 l0 -165 75 0 75 0 0 165 0 165 -75 0 -75 0 0 -165z"/>
 <path d="M8570 3125 l0 -75 75 0 75 0 0 75 0 75 -75 0 -75 0 0 -75z"/>
 <path d="M8570 2950 l0 -80 160 0 160 0 0 80 0 80 -160 0 -160 0 0 -80z"/>
 <path d="M8570 2685 l0 -165 75 0 75 0 0 165 0 165 -75 0 -75 0 0 -165z"/>
 <path d="M8740 2775 l0 -75 75 0 75 0 0 75 0 75 -75 0 -75 0 0 -75z"/>
 <path d="M8740 2595 l0 -75 75 0 75 0 0 75 0 75 -75 0 -75 0 0 -75z"/>
 <path d="M8570 2335 l0 -165 75 0 75 0 0 165 0 165 -75 0 -75 0 0 -165z"/>
 <path d="M8740 2420 l0 -80 75 0 75 0 0 80 0 80 -75 0 -75 0 0 -80z"/>
 <path d="M8740 2245 l0 -75 75 0 75 0 0 75 0 75 -75 0 -75 0 0 -75z"/>
 <path d="M8570 2070 l0 -80 160 0 160 0 0 80 0 80 -160 0 -160 0 0 -80z"/>
 <path d="M8570 1895 l0 -75 75 0 75 0 0 75 0 75 -75 0 -75 0 0 -75z"/>
 <path d="M8740 1805 l0 -165 75 0 75 0 0 165 0 165 -75 0 -75 0 0 -165z"/>
 <path d="M8570 1715 l0 -75 75 0 75 0 0 75 0 75 -75 0 -75 0 0 -75z"/>
 <path d="M8570 1540 l0 -80 75 0 75 0 0 80 0 80 -75 0 -75 0 0 -80z"/>
 <path d="M8740 1455 l0 -165 75 0 75 0 0 165 0 165 -75 0 -75 0 0 -165z"/>
 <path d="M8570 1365 l0 -75 75 0 75 0 0 75 0 75 -75 0 -75 0 0 -75z"/>
 <path d="M8570 1185 l0 -75 160 0 160 0 0 75 0 75 -160 0 -160 0 0 -75z"/>
 <path d="M8570 925 l0 -165 75 0 75 0 0 165 0 165 -75 0 -75 0 0 -165z"/>
 <path d="M8740 1010 l0 -80 75 0 75 0 0 80 0 80 -75 0 -75 0 0 -80z"/>
 <path d="M6730 835 l0 -75 35 0 35 0 0 75 0 75 -35 0 -35 0 0 -75z"/>
 <path d="M6820 835 l0 -75 75 0 75 0 0 75 0 75 -75 0 -75 0 0 -75z"/>
 <path d="M6990 835 l0 -75 80 0 80 0 0 75 0 75 -80 0 -80 0 0 -75z"/>
 <path d="M7170 835 l0 -75 75 0 75 0 0 75 0 75 -75 0 -75 0 0 -75z"/>
 <path d="M7340 745 l0 -165 80 0 80 0 0 165 0 165 -80 0 -80 0 0 -165z"/>
 <path d="M7520 835 l0 -75 165 0 165 0 0 75 0 75 -165 0 -165 0 0 -75z"/>
 <path d="M7870 835 l0 -75 160 0 160 0 0 75 0 75 -160 0 -160 0 0 -75z"/>
 <path d="M8220 745 l0 -165 75 0 75 0 0 165 0 165 -75 0 -75 0 0 -165z"/>
 <path d="M8390 835 l0 -75 75 0 75 0 0 75 0 75 -75 0 -75 0 0 -75z"/>
 <path d="M8740 835 l0 -75 75 0 75 0 0 75 0 75 -75 0 -75 0 0 -75z"/>
 <path d="M6737 733 c-4 -3 -7 -39 -7 -80 l0 -73 120 0 120 0 0 80 0 80 -113 0 c-63 0 -117 -3 -120 -7z"/>
 <path d="M6994 727 c-3 -8 -4 -43 -2 -78 l3 -64 163 -3 163 -2 -3 77 -3 78 -158 3 c-127 2 -158 0 -163 -11z"/>
 <path d="M7520 660 l0 -80 75 0 76 0 -3 78 -3 77 -72 3 -73 3 0 -81z"/>
 <path d="M7697 734 c-4 -4 -7 -41 -7 -81 l0 -74 78 3 77 3 0 75 0 75 -70 3 c-39 1 -74 0 -78 -4z"/>
 <path d="M7870 660 l0 -80 75 0 76 0 -3 78 -3 77 -72 3 -73 3 0 -81z"/>
 <path d="M8047 733 c-4 -3 -7 -39 -7 -80 l0 -73 75 0 75 0 0 80 0 80 -68 0 c-38 0 -72 -3 -75 -7z"/>
 <path d="M8397 734 c-4 -4 -7 -40 -7 -81 l0 -73 165 0 166 0 -3 78 -3 77 -156 3 c-85 1 -158 -1 -162 -4z"/>
 <path d="M8747 733 c-4 -3 -7 -39 -7 -80 l0 -73 75 0 75 0 0 80 0 80 -68 0 c-38 0 -72 -3 -75 -7z"/>
 </g>
<g id="layer104" fill="#fdfdfd" stroke="none">
 <path d="M1500 6210 l0 -160 70 0 69 0 3 160 3 160 -72 0 -73 0 0 -160z"/>
 <path d="M1670 6300 l0 -70 75 0 75 0 0 70 0 70 -75 0 -75 0 0 -70z"/>
 <path d="M1850 6300 l0 -70 70 0 70 0 0 70 0 70 -70 0 -70 0 0 -70z"/>
 <path d="M2020 6210 l0 -160 75 0 75 0 0 160 0 160 -75 0 -75 0 0 -160z"/>
 <path d="M2200 6300 l0 -70 160 0 160 0 0 70 0 70 -160 0 -160 0 0 -70z"/>
 <path d="M2550 6300 l0 -70 160 0 160 0 0 70 0 70 -160 0 -160 0 0 -70z"/>
 <path d="M2900 6210 l0 -160 70 0 70 0 0 160 0 160 -70 0 -70 0 0 -160z"/>
 <path d="M3070 6300 l0 -70 75 0 75 0 0 70 0 70 -75 0 -75 0 0 -70z"/>
 <path d="M3240 6300 l0 -70 75 0 75 0 0 70 0 70 -75 0 -75 0 0 -70z"/>
 <path d="M3420 6300 l0 -70 73 0 72 0 0 70 0 70 -72 0 -73 0 0 -70z"/>
 <path d="M3590 6300 l0 -70 75 0 75 0 0 70 0 70 -75 0 -75 0 0 -70z"/>
 <path d="M3770 6210 l0 -160 70 0 70 0 0 160 0 160 -70 0 -70 0 0 -160z"/>
 <path d="M3930 6300 l0 -70 125 0 125 0 0 70 0 70 -125 0 -125 0 0 -70z"/>
 <path d="M4205 6300 l0 -70 160 0 160 0 0 70 0 70 -160 0 -160 0 0 -70z"/>
 <path d="M4550 6210 l0 -160 75 0 75 0 0 160 0 160 -75 0 -75 0 0 -160z"/>
 <path d="M4730 6300 l0 -70 70 0 70 0 0 70 0 70 -70 0 -70 0 0 -70z"/>
 <path d="M4900 6300 l0 -70 75 0 75 0 0 70 0 70 -75 0 -75 0 0 -70z"/>
 <path d="M5080 6300 l0 -70 70 0 70 0 0 70 0 70 -70 0 -70 0 0 -70z"/>
 <path d="M5250 6300 l0 -70 75 0 75 0 0 70 0 70 -75 0 -75 0 0 -70z"/>
 <path d="M5430 6210 l0 -160 70 0 70 0 0 160 0 160 -70 0 -70 0 0 -160z"/>
 <path d="M5600 6300 l0 -70 160 0 160 0 0 70 0 70 -160 0 -160 0 0 -70z"/>
 <path d="M5950 6300 l0 -70 160 0 160 0 0 70 0 70 -160 0 -160 0 0 -70z"/>
 <path d="M6300 6210 l0 -160 75 0 75 0 0 160 0 160 -75 0 -75 0 0 -160z"/>
 <path d="M6470 6300 l0 -70 75 0 75 0 0 70 0 70 -75 0 -75 0 0 -70z"/>
 <path d="M6650 6300 l0 -70 73 0 72 0 0 70 0 70 -72 0 -73 0 0 -70z"/>
 <path d="M6820 6300 l0 -70 75 0 75 0 0 70 0 70 -75 0 -75 0 0 -70z"/>
 <path d="M7000 6300 l0 -70 70 0 70 0 0 70 0 70 -70 0 -70 0 0 -70z"/>
 <path d="M7170 6210 l0 -160 75 0 75 0 0 160 0 160 -75 0 -75 0 0 -160z"/>
 <path d="M7350 6300 l0 -70 160 0 160 0 0 70 0 70 -160 0 -160 0 0 -70z"/>
 <path d="M7700 6300 l0 -70 160 0 160 0 0 70 0 70 -160 0 -160 0 0 -70z"/>
 <path d="M1670 6125 l0 -75 160 0 160 0 0 75 0 75 -160 0 -160 0 0 -75z"/>
 <path d="M2200 6125 l0 -75 70 0 70 0 0 75 0 75 -70 0 -70 0 0 -75z"/>
 <path d="M2370 6125 l0 -75 75 0 75 0 0 75 0 75 -75 0 -75 0 0 -75z"/>
 <path d="M2550 6125 l0 -75 70 0 70 0 0 75 0 75 -70 0 -70 0 0 -75z"/>
 <path d="M2720 6125 l0 -75 75 0 75 0 0 75 0 75 -75 0 -75 0 0 -75z"/>
 <path d="M3070 6125 l0 -75 160 0 160 0 0 75 0 75 -160 0 -160 0 0 -75z"/>
 <path d="M3420 6125 l0 -75 160 0 160 0 0 75 0 75 -160 0 -160 0 0 -75z"/>
 <path d="M3930 6125 l0 -75 35 0 35 0 0 75 0 75 -35 0 -35 0 0 -75z"/>
 <path d="M4030 6125 l0 -75 75 0 75 0 0 75 0 75 -75 0 -75 0 0 -75z"/>
 <path d="M4210 6198 c-1 -2 -2 -36 -3 -76 l-2 -72 73 0 72 0 0 75 0 75 -70 0 c-38 0 -70 -1 -70 -2z"/>
 <path d="M4380 6125 l0 -75 73 0 72 0 -1 72 -2 73 -71 3 -71 3 0 -76z"/>
 <path d="M4730 6125 l0 -75 160 0 160 0 0 75 0 75 -160 0 -160 0 0 -75z"/>
 <path d="M5080 6125 l0 -75 160 0 160 0 0 75 0 75 -160 0 -160 0 0 -75z"/>
 <path d="M5600 6125 l0 -75 75 0 75 0 0 75 0 75 -75 0 -75 0 0 -75z"/>
 <path d="M5780 6125 l0 -75 70 0 70 0 0 75 0 75 -70 0 -70 0 0 -75z"/>
 <path d="M5950 6125 l0 -75 75 0 75 0 0 75 0 75 -75 0 -75 0 0 -75z"/>
 <path d="M6130 6198 c-1 -2 -2 -36 -3 -76 l-2 -72 73 0 72 0 0 75 0 75 -70 0 c-38 0 -70 -1 -70 -2z"/>
 <path d="M6470 6125 l0 -75 160 0 160 0 0 75 0 75 -160 0 -160 0 0 -75z"/>
 <path d="M6820 6125 l0 -75 160 0 160 0 0 75 0 75 -160 0 -160 0 0 -75z"/>
 <path d="M7350 6125 l0 -75 70 0 70 0 0 75 0 75 -70 0 -70 0 0 -75z"/>
 <path d="M7520 6125 l0 -75 75 0 75 0 0 75 0 75 -75 0 -75 0 0 -75z"/>
 <path d="M7700 6125 l0 -75 70 0 70 0 0 75 0 75 -70 0 -70 0 0 -75z"/>
 <path d="M7870 6125 l0 -75 75 0 75 0 0 75 0 75 -75 0 -75 0 0 -75z"/>
 <path d="M8570 5595 l0 -75 70 0 70 0 0 75 0 75 -70 0 -70 0 0 -75z"/>
 <path d="M8740 5510 l0 -160 75 0 75 0 0 160 0 160 -75 0 -75 0 0 -160z"/>
 <path d="M8570 5420 l0 -70 73 0 72 0 0 70 0 70 -72 0 -73 0 0 -70z"/>
 <path d="M8570 5245 l0 -75 160 0 160 0 0 75 0 75 -160 0 -160 0 0 -75z"/>
 <path d="M8570 5065 l0 -75 70 0 70 0 0 75 0 75 -70 0 -70 0 0 -75z"/>
 <path d="M8740 4980 l0 -160 75 0 75 0 0 160 0 160 -75 0 -75 0 0 -160z"/>
 <path d="M8570 4890 l0 -70 73 0 72 0 0 70 0 70 -72 0 -73 0 0 -70z"/>
 <path d="M8570 4715 l0 -75 160 0 160 0 0 75 0 75 -160 0 -160 0 0 -75z"/>
 <path d="M8570 4450 l0 -160 73 0 72 0 0 160 0 160 -72 0 -73 0 0 -160z"/>
 <path d="M8742 4538 l3 -73 73 -3 72 -3 0 76 0 75 -75 0 -76 0 3 -72z"/>
 <path d="M8740 4360 l0 -70 75 0 75 0 0 70 0 70 -75 0 -75 0 0 -70z"/>
 <path d="M8570 4095 l0 -166 73 3 c39 2 71 6 70 11 -2 4 -3 77 -3 162 l0 155 -70 0 -70 0 0 -165z"/>
 <path d="M8740 4185 l0 -75 75 0 75 0 0 75 0 75 -75 0 -75 0 0 -75z"/>
 <path d="M8742 4008 l3 -73 73 -3 72 -3 0 76 0 75 -75 0 -76 0 3 -72z"/>
 <path d="M8570 3835 l0 -75 160 0 160 0 0 75 0 75 -160 0 -160 0 0 -75z"/>
 <path d="M8570 3655 l0 -75 70 0 70 0 0 75 0 75 -70 0 -70 0 0 -75z"/>
 <path d="M8740 3570 l0 -160 75 0 75 0 0 160 0 160 -75 0 -75 0 0 -160z"/>
 <path d="M8570 3480 l0 -70 73 0 72 0 0 70 0 70 -72 0 -73 0 0 -70z"/>
 <path d="M8570 3305 l0 -75 73 0 72 0 -3 75 -4 75 -69 0 -69 0 0 -75z"/>
 <path d="M8740 3215 l0 -165 75 0 75 0 0 165 0 165 -75 0 -75 0 0 -165z"/>
 <path d="M8570 3125 l0 -75 70 0 70 0 0 75 0 75 -70 0 -70 0 0 -75z"/>
 <path d="M8570 2950 l0 -70 160 0 160 0 0 70 0 70 -160 0 -160 0 0 -70z"/>
 <path d="M8570 2685 l0 -165 70 0 70 0 0 165 0 165 -70 0 -70 0 0 -165z"/>
 <path d="M8740 2775 l0 -75 75 0 75 0 0 75 0 75 -75 0 -75 0 0 -75z"/>
 <path d="M8742 2598 l3 -73 73 -3 72 -3 0 76 0 75 -75 0 -76 0 3 -72z"/>
 <path d="M8570 2330 l0 -160 70 0 69 0 3 160 3 160 -72 0 -73 0 0 -160z"/>
 <path d="M8740 2420 l0 -70 75 0 75 0 0 70 0 70 -75 0 -75 0 0 -70z"/>
 <path d="M8740 2245 l0 -75 75 0 75 0 0 75 0 75 -75 0 -75 0 0 -75z"/>
 <path d="M8570 2070 l0 -70 160 0 160 0 0 70 0 70 -160 0 -160 0 0 -70z"/>
 <path d="M8570 1895 l0 -75 73 0 72 0 -3 75 -4 75 -69 0 -69 0 0 -75z"/>
 <path d="M8747 1963 c-4 -3 -7 -78 -7 -165 l0 -158 75 0 75 0 0 165 0 165 -68 0 c-38 0 -72 -3 -75 -7z"/>
 <path d="M8570 1715 l0 -75 70 0 70 0 0 75 0 75 -70 0 -70 0 0 -75z"/>
 <path d="M8570 1540 l0 -70 73 0 72 0 0 70 0 70 -72 0 -73 0 0 -70z"/>
 <path d="M8740 1450 l0 -160 75 0 75 0 0 160 0 160 -75 0 -75 0 0 -160z"/>
 <path d="M8570 1365 l0 -75 70 0 70 0 0 75 0 75 -70 0 -70 0 0 -75z"/>
 <path d="M8570 1185 l0 -75 160 0 160 0 0 75 0 75 -160 0 -160 0 0 -75z"/>
 <path d="M8570 920 l0 -160 70 0 69 0 3 160 3 160 -72 0 -73 0 0 -160z"/>
 <path d="M8740 1010 l0 -70 75 0 75 0 0 70 0 70 -75 0 -75 0 0 -70z"/>
 <path d="M6740 835 c0 -73 1 -75 25 -75 24 0 25 2 25 75 0 73 -1 75 -25 75 -24 0 -25 -2 -25 -75z"/>
 <path d="M6820 835 l0 -75 75 0 75 0 0 75 0 75 -75 0 -75 0 0 -75z"/>
 <path d="M7000 835 l0 -75 70 0 70 0 0 75 0 75 -70 0 -70 0 0 -75z"/>
 <path d="M7170 835 l0 -75 75 0 75 0 0 75 0 75 -75 0 -75 0 0 -75z"/>
 <path d="M7350 745 l0 -165 70 0 70 0 0 165 0 165 -70 0 -70 0 0 -165z"/>
 <path d="M7520 835 l0 -75 160 0 160 0 0 75 0 75 -160 0 -160 0 0 -75z"/>
 <path d="M7870 835 l0 -75 160 0 160 0 0 75 0 75 -160 0 -160 0 0 -75z"/>
 <path d="M8220 745 l0 -166 73 3 72 3 3 163 2 162 -75 0 -75 0 0 -165z"/>
 <path d="M8390 835 l0 -75 75 0 75 0 0 75 0 75 -75 0 -75 0 0 -75z"/>
 <path d="M8740 835 l0 -75 75 0 75 0 0 75 0 75 -75 0 -75 0 0 -75z"/>
 <path d="M6740 655 l0 -75 115 0 115 0 0 75 0 75 -115 0 -115 0 0 -75z"/>
 <path d="M7000 655 l0 -75 160 0 160 0 0 75 0 75 -160 0 -160 0 0 -75z"/>
 <path d="M7520 655 l0 -76 73 3 72 3 3 73 3 72 -76 0 -75 0 0 -75z"/>
 <path d="M7700 655 l0 -75 70 0 70 0 0 75 0 75 -70 0 -70 0 0 -75z"/>
 <path d="M7870 655 l0 -76 73 3 72 3 3 73 3 72 -76 0 -75 0 0 -75z"/>
 <path d="M8046 658 l2 -73 71 -3 71 -3 0 76 0 75 -72 0 -73 0 1 -72z"/>
 <path d="M8392 658 l3 -73 158 0 159 0 1 73 2 72 -163 0 -163 0 3 -72z"/>
 <path d="M8742 658 l3 -73 73 -3 72 -3 0 76 0 75 -75 0 -76 0 3 -72z"/>
 </g>

</svg>